<svg width="154" height="134" viewBox="0 0 154 134" fill="none" xmlns="http://www.w3.org/2000/svg">
<path d="M5.27925 84.0066C5.27873 67.0573 5.27859 62.5091 8.12032 55.964C10.2511 51.0564 14.5127 47.5509 23.0359 44.7466C26.5656 43.5852 30.0711 43.6831 40.0822 45.4477C59.9696 48.9531 63 65.4332 63 65.4332C63 65.4332 67.0722 43.3444 93.352 42.6433C101.194 42.4341 111.819 48.9531 111.819 48.9531C111.819 48.9531 120.342 39.094 132.417 39.8389C138.796 40.2325 139.519 41.2411 144.491 45.4476C147.652 48.1219 149.463 51.7574 150.173 55.2628C151.594 62.2737 151.594 67.1544 151.594 76.2954C151.594 88.915 151.594 98.0291 150.173 101.535C149.382 103.487 142.36 109.247 133.837 112.752C130.128 114.277 102.585 123.969 94.0623 126.774C83.4083 130.279 79.857 130.98 67.0723 132.382C63.4728 132.777 58.5491 133.084 44.3438 129.578C33.9165 127.005 28.7463 125.938 18.7743 123.969C8.80231 122.001 8.74913 119.28 8.12032 115.556C7.49152 111.832 5.27926 105.04 5.27926 84.7084L5.27925 84.0066Z" fill="#FFD6A6" stroke="#333333" stroke-width="2"/>
<path d="M115 49.5279C117.5 47.1946 124.343 41.9332 130 41.9332C140 41.9332 144.5 44.9332 146.5 48.9332" stroke="#FAEBEB" stroke-width="5" stroke-linecap="round"/>
<path d="M67 62.4332C68.6456 58.8971 72.9241 52.3553 79.8354 48.6424C88.1666 44.1668 97.6203 46.1595 107 50.9332" stroke="#FAEBEB" stroke-width="5" stroke-linecap="round"/>
<path d="M10 57.4357C11.1667 52.769 18.244 45.8733 30 46.4694C44 47.1794 56 52.1456 59.5 62.9357" stroke="#FAEBEB" stroke-width="5" stroke-linecap="round"/>
<path d="M62 72C62 72.7011 63.4205 81.2283 63.4205 90.2283C63.4205 94.4348 62.6316 105.12 62.6316 110.728C62.6316 116.337 63.4868 122.348 63.4868 126.554" stroke="#333333" stroke-width="2" stroke-linecap="round"/>
<path d="M1.01773 44.7466C1.44994 54.5618 6.6998 60.1705 6.6998 60.1705C6.6998 60.1705 10.9614 46.8498 23.7462 44.7466C34.7311 42.9394 42.213 46.1487 46.4746 47.5509C56.4183 50.8226 60.8692 59.8245 63 65.4332C67.9718 52.1126 79.1468 44.7466 86.9597 43.3444C100.689 40.8804 110.398 48.252 111.819 48.9531C116.791 44.0455 124.246 39.269 134.547 40.54C140.23 41.2411 145.912 45.4476 148.753 51.0563C151.062 45.1312 152.497 40.8834 152 32.4332C151.339 21.1974 149.419 17.9524 147 14.4332C141.5 6.43323 127.5 1.63167 120 1.27913C106.21 0.630899 102 3.43323 91.9315 8.29002C84.8289 2.68131 72.0442 0.103139 53.5773 1.27913C37.2412 2.31942 24.3199 7.91397 16.6435 14.5998C8.12039 22.0231 0.585514 34.9313 1.01773 44.7466Z" fill="#D36F13"/>
<path d="M91.9315 8.29002C84.8289 2.68131 72.0442 0.103139 53.5773 1.27913C37.2412 2.31942 24.3199 7.91397 16.6435 14.5998C8.12039 22.0231 0.585514 34.9313 1.01773 44.7466C1.44994 54.5618 6.6998 60.1705 6.6998 60.1705C6.6998 60.1705 10.9614 46.8498 23.7462 44.7466C34.7311 42.9394 42.213 46.1487 46.4746 47.5509C56.4183 50.8226 60.8692 59.8245 63 65.4332C67.9718 52.1126 79.1468 44.7466 86.9597 43.3444C100.689 40.8804 110.398 48.252 111.819 48.9531C116.791 44.0455 124.246 39.269 134.547 40.54C140.23 41.2411 145.912 45.4476 148.753 51.0563C151.062 45.1312 152.497 40.8835 152 32.4332C151.339 21.1974 149.419 17.9524 147 14.4332C141.5 6.43323 127.5 1.63167 120 1.27913C106.21 0.630899 102 3.43323 91.9315 8.29002ZM91.9315 8.29002C99.0342 13.8987 106.137 23.0128 106.847 27.9204" stroke="#333333" stroke-width="2" stroke-linecap="round"/>
<path d="M56 49C60.5 51.5 63 57.5 63 57.5C63 57.5 65.5 53.0668 67.5 51.0668" stroke="#9B4E08" stroke-width="4" stroke-linecap="round"/>
</svg>
